<?xml version="1.0" encoding="utf-8"?>
<!-- Generator: Adobe Illustrator 24.0.1, SVG Export Plug-In . SVG Version: 6.00 Build 0)  -->
<svg version="1.1" id="Layer_1" xmlns="http://www.w3.org/2000/svg" xmlns:xlink="http://www.w3.org/1999/xlink" x="0px" y="0px"
	 viewBox="0 0 800 800" style="enable-background:new 0 0 800 800;" xml:space="preserve">
<path d="M189.8,311.7c-48.7,0-88.3,39.6-88.3,88.3s39.6,88.3,88.3,88.3s88.3-39.6,88.3-88.3S238.4,311.7,189.8,311.7z M189.8,463.1
	c-34.8,0-63.1-28.3-63.1-63.1s28.3-63.1,63.1-63.1s63.1,28.3,63.1,63.1S224.6,463.1,189.8,463.1z M484.7,525.6c-5-5-12.9-5-17.8,0
	L400,592.5l-66.8-66.8c-5-5-12.9-5-17.8,0c-5,5-5,12.9,0,17.8l66.8,66.8l-66.9,66.9c-5,5-5,12.9,0,17.8c2.5,2.5,5.7,3.7,8.9,3.7
	c3.2,0,6.4-1.2,8.9-3.7l66.8-66.8l66.8,66.8c2.5,2.5,5.7,3.7,8.9,3.7c3.2,0,6.4-1.2,8.9-3.7c5-5,5-12.9,0-17.8l-66.8-66.8l66.8-66.8
	C489.6,538.4,489.6,530.5,484.7,525.6z M400,488.3c48.7,0,88.3-39.6,88.3-88.3s-39.6-88.3-88.3-88.3s-88.3,39.6-88.3,88.3
	S351.3,488.3,400,488.3z M400,336.9c34.8,0,63.1,28.3,63.1,63.1s-28.3,63.1-63.1,63.1s-63.1-28.3-63.1-63.1S365.2,336.9,400,336.9z
	 M484.7,105c-5-5-12.9-5-17.8,0L400,171.9L333.2,105c-5-5-12.9-5-17.8,0c-5,5-5,12.9,0,17.8l66.8,66.8l-66.9,66.9
	c-5,5-5,12.9,0,17.8c2.5,2.5,5.7,3.7,8.9,3.7c3.2,0,6.4-1.2,8.9-3.7l66.8-66.8l66.8,66.8c2.5,2.5,5.7,3.7,8.9,3.7
	c3.2,0,6.4-1.2,8.9-3.7c5-5,5-12.9,0-17.8l-66.8-66.8l66.8-66.8C489.6,118,489.6,110,484.7,105z M610.2,311.7
	c-48.7,0-88.3,39.6-88.3,88.3s39.6,88.3,88.3,88.3s88.3-39.7,88.3-88.3S659,311.7,610.2,311.7z M610.2,463.1
	c-34.8,0-63.1-28.3-63.1-63.1s28.3-63.1,63.1-63.1s63.1,28.3,63.1,63.1S645.1,463.1,610.2,463.1z"/>
</svg>
