<?xml version="1.0" encoding="utf-8"?>
<!-- Generator: Adobe Illustrator 24.0.1, SVG Export Plug-In . SVG Version: 6.00 Build 0)  -->
<svg version="1.1" id="Layer_1" xmlns="http://www.w3.org/2000/svg" xmlns:xlink="http://www.w3.org/1999/xlink" x="0px" y="0px"
	 viewBox="0 0 800 800" style="enable-background:new 0 0 800 800;" xml:space="preserve">
<path d="M677.9,122.1c-16.1-16.1-42.3-16.1-58.4,0L400,341.6L180.5,122.1c-16.1-16.1-42.3-16.1-58.4,0s-16.1,42.3,0,58.4L341.6,400
	L122.1,619.5c-16.1,16.1-16.1,42.3,0,58.4c8.1,8.1,18.6,12.1,29.2,12.1s21.1-4,29.2-12.1L400,458.4l219.5,219.5
	c8.1,8.1,18.6,12.1,29.2,12.1s21.1-4,29.2-12.1c16.1-16.1,16.1-42.3,0-58.4L458.4,400l219.5-219.5C694,164.4,694,138.2,677.9,122.1z
	"/>
</svg>
